<?xml version="1.0" encoding="utf-8"?>
<!-- Generator: Adobe Illustrator 16.0.0, SVG Export Plug-In . SVG Version: 6.00 Build 0)  -->
<!DOCTYPE svg PUBLIC "-//W3C//DTD SVG 1.1//EN" "http://www.w3.org/Graphics/SVG/1.1/DTD/svg11.dtd">
<svg version="1.1" id="Layer_1" xmlns="http://www.w3.org/2000/svg" xmlns:xlink="http://www.w3.org/1999/xlink" x="0px" y="0px"
	 width="500px" height="500px" viewBox="0 0 500 500" enable-background="new 0 0 500 500" xml:space="preserve">
<g id="_x3C_Yellow_Note_1_x3E_">
	<g opacity="0.5">
		<defs>
			<filter id="Adobe_OpacityMaskFilter" filterUnits="userSpaceOnUse" x="-0.033" y="5" width="499.75" height="490.019">
				<feColorMatrix  type="matrix" values="1 0 0 0 0  0 1 0 0 0  0 0 1 0 0  0 0 0 1 0"/>
			</filter>
		</defs>
		<mask maskUnits="userSpaceOnUse" x="-0.033" y="5" width="499.75" height="490.019" id="SVGID_1_">
			<g filter="url(#Adobe_OpacityMaskFilter)">
			</g>
		</mask>
		<g mask="url(#SVGID_1_)">
			<path d="M8.583,164.403c0,100.925-8.616,330.616-8.616,330.616s184.768,0,248.92,0c64.151,0,250.83-4.149,250.83-4.149
				s-1.914-62.318-1.914-100.523C497.803,352.139,487.271,5,487.271,5s-302.97,0.479-374.333,0.479
				c-71.361,0-97.013,1.595-97.013,1.595S8.583,63.486,8.583,164.403z"/>
		</g>
	</g>
	
		<linearGradient id="SVGID_2_" gradientUnits="userSpaceOnUse" x1="75.2297" y1="310.166" x2="532.6124" y2="-159.1897" gradientTransform="matrix(1 0 0 -1 -47.6001 330.0098)">
		<stop  offset="0" style="stop-color:#C4B76F"/>
		<stop  offset="0.0858" style="stop-color:#E1D17F"/>
		<stop  offset="0.1371" style="stop-color:#EDDC86"/>
		<stop  offset="0.887" style="stop-color:#FBE98D"/>
		<stop  offset="1" style="stop-color:#FCEA8E"/>
	</linearGradient>
	<path fill="url(#SVGID_2_)" d="M1.427,153.795c0,105.804,0,344.599,0,344.599s290.186,0,357.791,0
		c67.606,0,134.446-17.383,134.446-17.383s6.838-48.359,6.838-88.414c0-40.053,0-392.94,0-392.94s-307.647,0-382.852,0
		c-75.205,0-99.509,7.553-99.509,7.553S1.427,48,1.427,153.795z"/>
</g>
</svg>
